<?xml version="1.0" standalone="no"?>
<!DOCTYPE svg PUBLIC "-//W3C//DTD SVG 20010904//EN"
 "http://www.w3.org/TR/2001/REC-SVG-20010904/DTD/svg10.dtd">
<svg version="1.0" xmlns="http://www.w3.org/2000/svg"
 width="512.000000pt" height="512.000000pt" viewBox="0 0 512.000000 512.000000"
 preserveAspectRatio="xMidYMid meet">

<g transform="translate(0.000000,512.000000) scale(0.100000,-0.100000)"
fill="#000000" stroke="none">
<path d="M1225 5110 c-426 -30 -658 -111 -854 -296 l-62 -59 281 -325 c155
-179 290 -333 299 -344 18 -17 21 -16 83 46 179 179 408 270 778 309 141 14
1157 21 1445 9 395 -17 587 -63 778 -186 258 -167 406 -424 459 -799 10 -67
13 -298 13 -910 0 -894 -2 -931 -60 -1136 -84 -297 -279 -526 -537 -631 -77
-32 -78 -32 -59 -52 10 -12 136 -158 281 -326 145 -168 268 -311 275 -319 11
-11 22 -10 69 8 149 55 276 141 389 262 135 144 222 311 274 526 24 105 25
124 35 608 5 275 7 964 4 1530 -4 898 -7 1042 -21 1125 -80 458 -359 785 -772
905 -202 59 -167 58 -1633 60 -740 2 -1399 -1 -1465 -5z"/>
<path d="M1945 4100 c-417 -16 -627 -80 -735 -224 -71 -95 -94 -52 237 -435
l297 -343 20 28 c38 53 151 166 216 216 80 61 219 130 325 160 69 20 103 23
250 23 146 0 182 -3 253 -23 309 -84 560 -315 666 -613 47 -130 60 -223 53
-376 -7 -183 -46 -313 -139 -463 -84 -136 -241 -286 -365 -349 -24 -12 -43
-24 -43 -26 0 -3 120 -144 266 -313 300 -346 263 -320 395 -276 193 63 330
196 394 381 53 152 70 366 81 1043 15 840 -49 1196 -250 1395 -104 103 -205
147 -421 182 -106 17 -1146 26 -1500 13z m1743 -337 c28 -17 59 -48 77 -77 26
-42 30 -59 30 -115 -1 -103 -43 -168 -135 -210 -82 -37 -169 -24 -240 36 -128
110 -100 306 54 380 68 32 148 27 214 -14z"/>
<path d="M2462 3180 c-194 -27 -353 -134 -441 -299 l-33 -62 24 -29 c12 -17
178 -210 368 -430 393 -456 347 -421 476 -358 92 44 197 148 246 243 49 94 68
163 75 270 20 309 -161 576 -438 648 -74 20 -201 27 -277 17z"/>
</g>
</svg>
